<svg width="21" height="9" viewBox="0 0 21 9" fill="none" xmlns="http://www.w3.org/2000/svg">
<path d="M1 0C0.723858 0 0.5 0.223858 0.5 0.5C0.5 0.776142 0.723858 1 1 1V0ZM20 1C20.2761 1 20.5 0.776142 20.5 0.5C20.5 0.223858 20.2761 0 20 0V1ZM1 4C0.723858 4 0.5 4.22386 0.5 4.5C0.5 4.77614 0.723858 5 1 5V4ZM20 5C20.2761 5 20.5 4.77614 20.5 4.5C20.5 4.22386 20.2761 4 20 4V5ZM1 8C0.723858 8 0.5 8.22386 0.5 8.5C0.5 8.77614 0.723858 9 1 9V8ZM20 9C20.2761 9 20.5 8.77614 20.5 8.5C20.5 8.22386 20.2761 8 20 8V9ZM1 1H20V0H1V1ZM1 5H20V4H1V5ZM1 9H20V8H1V9Z" fill="black"/>
</svg>
